<?xml version="1.0" encoding="UTF-8" standalone="no"?>
<!DOCTYPE svg PUBLIC "-//W3C//DTD SVG 1.1//EN"
 "http://www.w3.org/Graphics/SVG/1.1/DTD/svg11.dtd">
<!-- Generated by graphviz version 2.40.1 (20161225.0304)
 -->
<!-- Title: iocStats Pages: 1 -->
<svg width="106pt" height="191pt"
 viewBox="0.00 0.00 106.00 191.00" xmlns="http://www.w3.org/2000/svg" xmlns:xlink="http://www.w3.org/1999/xlink">
<g id="graph0" class="graph" transform="scale(1 1) rotate(0) translate(4 187)">
<title>iocStats</title>
<polygon fill="#ffffff" stroke="transparent" points="-4,4 -4,-187 102,-187 102,4 -4,4"/>
<!-- base -->
<g id="node1" class="node">
<title>base</title>
<polygon fill="none" stroke="#000000" points="13,-146.5 13,-182.5 85,-182.5 85,-146.5 13,-146.5"/>
<text text-anchor="middle" x="49" y="-160.8" font-family="Times,serif" font-size="14.00" fill="#000000">base 7.0.3</text>
</g>
<!-- require -->
<g id="node2" class="node">
<title>require</title>
<polygon fill="none" stroke="#000000" points="6,-73.5 6,-109.5 92,-109.5 92,-73.5 6,-73.5"/>
<text text-anchor="middle" x="49" y="-87.8" font-family="Times,serif" font-size="14.00" fill="#000000">require 3.1.1</text>
</g>
<!-- base&#45;&gt;require -->
<g id="edge1" class="edge">
<title>base&#45;&gt;require</title>
<path fill="none" stroke="#000000" d="M49,-146.4551C49,-138.3828 49,-128.6764 49,-119.6817"/>
<polygon fill="#000000" stroke="#000000" points="52.5001,-119.5903 49,-109.5904 45.5001,-119.5904 52.5001,-119.5903"/>
</g>
<!-- iocStats -->
<g id="node3" class="node">
<title>iocStats</title>
<polygon fill="none" stroke="#000000" points="0,-.5 0,-36.5 98,-36.5 98,-.5 0,-.5"/>
<text text-anchor="middle" x="49" y="-14.8" font-family="Times,serif" font-size="14.00" fill="#000000">iocStats 3.1.16</text>
</g>
<!-- require&#45;&gt;iocStats -->
<g id="edge2" class="edge">
<title>require&#45;&gt;iocStats</title>
<path fill="none" stroke="#000000" d="M49,-73.4551C49,-65.3828 49,-55.6764 49,-46.6817"/>
<polygon fill="#000000" stroke="#000000" points="52.5001,-46.5903 49,-36.5904 45.5001,-46.5904 52.5001,-46.5903"/>
</g>
</g>
</svg>
